<svg width="934" height="266" fill="none" xmlns="http://www.w3.org/2000/svg">
  <path d="m80.4 168.7 21-56.2-4.8-14.4c-1.4-4-3-6.8-4.7-8.1-1.7-1.4-4.3-2-7.7-2H82V76.3a330.1 330.1 0 0 0 46.2 1.2c5.2-.2 12-.6 20.4-1.2V88h-2.3c-4.3 0-7.5.6-9.4 1.8-2 1.2-3 3.1-3 5.6l.3 2.6a32 32 0 0 0 1 3.8l20.6 66.3c10-29 16.1-47.5 18.6-55.7a74.4 74.4 0 0 0 3.8-15.8c0-3-1-5.3-2.8-6.6-1.8-1.4-5-2-9.2-2h-2V76.3l5.5.4c10.5.8 17.8 1.2 22 1.2a331 331 0 0 0 27-1.6V88h-3a21 21 0 0 0-5.8.7c-1.6.4-3 1.2-4.2 2.2-1.8 1.6-5.4 9.8-10.8 24.7l-7.7 21L179 158a2566 2566 0 0 0-12.8 34.3c-2.4 7-4.4 13-5.8 18h-28.6a96.3 96.3 0 0 0-5-19.1l-16.4-49.4-19 50-.8 2.4a105 105 0 0 0-5.3 16.1h-28A866 866 0 0 0 45 174.1l-4.7-13.4-8.2-23.3a942 942 0 0 0-13-35.1 41 41 0 0 0-5-10.4 11.1 11.1 0 0 0-4.9-3c-2-.7-4.7-1-7.9-1H0V76.3a5658 5658 0 0 0 32.8 1.6 467.3 467.3 0 0 0 37.3-1.6V88h-2.3c-3.7 0-6.4.6-8.1 2-1.8 1.2-2.6 3.2-2.6 6l.3 2.7 1.3 4 21.7 66Zm170-56.2c17 0 30.7 4.7 41.1 14a46.6 46.6 0 0 1 15.6 36.4 46 46 0 0 1-15.9 36.1 59.4 59.4 0 0 1-41 14.2 59.7 59.7 0 0 1-40.6-13.6 44.3 44.3 0 0 1-15.6-35.1c0-15.2 5.3-27.6 15.9-37.4a57.5 57.5 0 0 1 40.5-14.6Zm-1 16.4c-6 0-10.5 2.5-13.6 7.4-3.1 4.8-4.7 12-4.7 21.5 0 12.6 1.7 22.1 5 28.6 3.4 6.5 8.4 9.8 15 9.8 6.3 0 11-2.5 14-7.5 3.2-5 4.7-12.5 4.7-22.5 0-12.2-1.7-21.5-5.2-27.8a16.4 16.4 0 0 0-15.2-9.5Z" fill="#950720"/>
  <path d="M353 112.3a570 570 0 0 0-1.8 26.2c5.6-9.6 10.2-16 13.9-19.3 3.7-3.3 7.7-5 12-5 4.4 0 8 1.7 11 5a18 18 0 0 1 4.4 12.4c0 4.3-1.2 7.8-3.4 10.6-2.2 2.7-5 4-8.5 4-2 0-4.4-.9-7.5-2.7-3-2-5.5-2.9-7.2-2.9a12 12 0 0 0-6.2 2.2 40 40 0 0 0-7.5 6.4 646.1 646.1 0 0 0-.2 18.7v10.9c0 9.1 1 14.9 3.1 17.2 2.1 2.4 6.2 3.6 12.4 3.6a67.3 67.3 0 0 0 4.5-.1v10.2a1036 1036 0 0 0-37.8-1.5l-12.5.4c-5.4.3-11.4.6-17.8 1.1v-10.5a19.6 19.6 0 0 1 2.8.2c8.4 0 12.6-9.6 12.6-28.7v-7.4l.2-10.5v-7c0-6-.7-9.8-2.1-11.6-1.5-1.7-4.2-2.6-8-2.6a76.4 76.4 0 0 0-5.3.2l-.6-10a300.8 300.8 0 0 0 49.4-9.5Z" fill="#950720"/>
  <path d="M389.2 199c4 0 6.8-.3 8.5-.8a6 6 0 0 0 3.7-2.9c2.1-3.9 3.3-22 3.4-54.4V96c0-5-.6-8.3-2-10-1.5-1.6-4.3-2.4-8.5-2.4a29.8 29.8 0 0 0-3.8.2l-.4-10.6a308.3 308.3 0 0 0 48.5-8c-.9 24.1-1.4 43.1-1.7 57a1583 1583 0 0 0-.5 35.8l-.2 18.9v6c0 7.3.7 11.9 2 13.7 1.4 1.8 4 2.8 7.7 2.8l1.2-.1 1.3-.1v10.5a860.5 860.5 0 0 0-30.4-1c-3 0-6.9 0-11.7.2l-17 .8V199Zm79 10.7v-.8l.1-.7c0-2.5-1.8-6.2-5.5-11.1l-.3-.4-26-34.6a578.1 578.1 0 0 0 22.9-23c3.1-3.5 4.7-6 4.7-7.4 0-1.8-.6-3-1.8-3.8a13 13 0 0 0-6.4-1.1h-1.6v-11a524.7 524.7 0 0 0 24.8 1.3 268 268 0 0 0 26.6-1.2v11h-1.4l-2-.1c-6 0-14.5 5-25.2 15-4.3 4-7.8 7-10.4 9.2l31.5 38.3 1.4 1.6c4.7 5.5 9.3 8.3 14 8.3h1.4v10.1a475.4 475.4 0 0 0-24.6-.7c-1.7 0-4.4 0-8.1.2l-14.2.9Zm51.3-6.1 1.4.2h2.2c5 0 8.4-1.6 10.2-4.9a55.7 55.7 0 0 0 2.6-21.8 971.3 971.3 0 0 0-.2-21.9V130a2304 2304 0 0 1 .3-33c0-5.2-1-9-3-11s-5.6-3.1-10.6-3.1h-1.5v-6.3a6677.5 6677.5 0 0 0 51.6 1 864.9 864.9 0 0 0 43-1c0 4.3.1 8.8.4 13.6l1.2 16.2-6.4.7c-.4-7.9-2.6-13.2-6.6-16-4-2.7-12.9-4-26.7-4-4.8 0-12.4.1-22.6.4h-.6a4089.6 4089.6 0 0 1-1 49.5h3a1184 1184 0 0 1 23.5.1c9.2 0 15.2-.8 18.2-2.5s4.5-4.8 4.8-9.3l5.9.4a260.3 260.3 0 0 0-1.3 19.8 169 169 0 0 0 .5 15.2l-6.1.5v-1.6c0-5-1.5-8.5-4.6-10.4a50 50 0 0 0-21.2-2.7h-22.7v36.2c0 9 1 14.6 3 17 2 2.3 6 3.4 12 3.4h3.7v6.6a597.4 597.4 0 0 0-37.2-.6l-15 .6v-6Zm143-88.1a45 45 0 0 1 45.5 45.9 51 51 0 0 1-13.6 36.1 44 44 0 0 1-33.6 14.7 43.3 43.3 0 0 1-32.8-13.4 47.2 47.2 0 0 1-12.8-34 48 48 0 0 1 14-34.9 44.7 44.7 0 0 1 33.3-14.4Zm-2.4 9.8c-8.4 0-15 3-20.1 9a37 37 0 0 0-7.6 24.6 55 55 0 0 0 8.4 31.9c5.6 8.1 13 12.2 22 12.2 8.7 0 15.6-3.2 20.8-9.7a41 41 0 0 0 7.8-26.4 49 49 0 0 0-8.8-30 27 27 0 0 0-22.5-11.6Zm77.5-10.9A283.9 283.9 0 0 0 736 141a76 76 0 0 1 14-19.2c4.2-4 8.6-6 13.1-6 3.6 0 6.4 1 8.4 3 2 1.8 3.1 4.4 3.1 7.6a9 9 0 0 1-2 6 6 6 0 0 1-4.7 2.4 13 13 0 0 1-5.2-1.8 13.6 13.6 0 0 0-6-1.8c-3.2 0-6.5 1.4-9.7 4.2a54.8 54.8 0 0 0-10.2 13.2V159c0 10 .1 18 .3 24.2.1 6.2.4 10 .7 11.8.5 3.1 1.7 5.3 3.6 6.5 1.8 1.2 5 1.8 9.3 1.8h2.7v6.5a467 467 0 0 0-22.5-1.1 247 247 0 0 0-23.2 1.1v-6.5h2.2c4.5 0 7.6-1.1 9.2-3.3 1.6-2.2 2.4-7.2 2.4-15.2v-40.1c0-6.7-.4-11-1.3-13-1-1.9-2.7-2.9-5.2-2.9a30.6 30.6 0 0 0-4.4.4l-1-5.8a159.3 159.3 0 0 0 28-9Zm109.2 76.9 4.6 7.1c-6 4.6-12 8.1-17.8 10.5a44.4 44.4 0 0 1-16.6 3.5 38 38 0 0 1-29.8-13 48.8 48.8 0 0 1-11.6-33.6c0-14.1 5-26 14.7-35.8a48.6 48.6 0 0 1 35.7-14.7c7.2 0 12.7 1 16.7 3 3.9 2 5.8 5 5.8 8.5 0 2.6-.7 4.9-2.3 6.8a7 7 0 0 1-5.5 2.8 41 41 0 0 1-8.6-4.7c-5.1-3.1-10-4.7-14.5-4.7-8.1 0-14.5 2.9-19.3 8.7a36.4 36.4 0 0 0-7.1 23.7 46 46 0 0 0 8.6 29.6c5.8 7 13.7 10.5 24 10.5 3.7 0 7.5-.6 11.3-2 3.7-1.2 7.6-3.3 11.7-6.2Zm87.1-33.7h-45.5a227.6 227.6 0 0 0-18.1.7v3.5c0 12.2 2.8 21.6 8.4 28.2 5.6 6.7 13.6 10 23.8 10 4.6 0 9-.8 13.5-2.3a66 66 0 0 0 14-7.1l3.7 6a79.3 79.3 0 0 1-19.2 11.8c-6.3 2.6-12.6 4-18.9 4-12 0-22-4.3-29.8-13a47.3 47.3 0 0 1-11.7-33c0-14.4 4-26.5 12.3-36.3a37.9 37.9 0 0 1 30-14.6c11 0 19.8 3.7 26.3 11a50.7 50.7 0 0 1 11.2 31Zm-17.3-9.8a38.9 38.9 0 0 0-8.4-17.6 18 18 0 0 0-13.7-6.1c-6 0-11 2.4-15.3 7.2-4.3 4.7-7 11.2-8.3 19.4 12.3 0 22-.3 29-.7 7-.4 12.6-1.2 16.7-2.2ZM141.5 48.2c65.1-63.5 178-64.4 239.3-1.9A197 197 0 0 0 260.5 8.6c-47.6.7-86.2 15.7-119 39.6ZM306 232.7h6.2L320 257l8-24.4h5l8 24.4 7.8-24.3h6l-11.3 33h-5l-8-23.5-8.1 23.5h-5l-11.4-33Zm75.7 0H406v5.2h-18.5v8.5h16.4v5.1h-16.4v8.8h18.7v5.2h-24.5v-32.8Zm50.2 28 3.4-4.1c3.2 2.7 6.4 4.2 10.4 4.2 3.5 0 5.8-1.7 5.8-4.1 0-2.4-1.3-3.7-7.4-5-7-1.8-11-3.8-11-9.9 0-5.7 4.8-9.5 11.3-9.5 4.7 0 8.5 1.4 11.8 4l-3 4.4a15 15 0 0 0-9-3.4c-3.3 0-5.3 1.8-5.3 4 0 2.5 1.5 3.7 7.9 5.2 6.9 1.6 10.4 4.1 10.4 9.5v.1c0 6.2-4.8 9.8-11.7 9.8a20 20 0 0 1-13.6-5.2Zm60.5-22.7H482v-5.3h26.5v5.3h-10.4v27.4h-5.7V238Zm68-5.3h6.4l9.8 25.2 9.8-25.2h6.2l-13.5 33h-5l-13.7-33Zm59.2 0h5.8v32.7h-5.8v-32.7Zm35.5 0h14.6c4.1 0 7.4 1.2 9.5 3.3a9.9 9.9 0 0 1 2.7 7v.2c0 5.3-3.3 8.6-7.8 9.9l8.9 12.3h-7l-8-11.4h-7.2v11.4h-5.7v-32.7Zm14.2 16.2c4.1 0 6.7-2.1 6.7-5.4v-.1c0-3.5-2.5-5.4-6.8-5.4H661v11h8.4Zm39.2.3v-.1c0-9.2 7-17 16.9-17 5.7 0 9.2 1.6 12.6 4.5l-3.7 4.4c-2.5-2.2-5-3.6-9.2-3.6-6 0-10.6 5.3-10.6 11.6 0 6.8 4.5 11.8 11.2 11.8 3 0 5.9-1 7.9-2.5v-6.1h-8.4v-5H739v13.7a20.7 20.7 0 0 1-13.6 5.1c-10.3 0-17-7.3-17-16.8Zm59.5-16.5h5.7v32.7H768v-32.7Zm35.5 0h5.3l17.5 22.6v-22.6h5.7v32.7h-4.8l-18-23.2v23.2h-5.7v-32.7Zm58.2 0h5.8v32.7h-5.8v-32.7Zm47.2-.2h5.3l14.4 33h-6l-3.4-8h-15.5l-3.3 8h-6l14.5-33Zm8.2 20-5.7-13.1-5.6 13h11.3Z" fill="#950720"/>
</svg>
