<svg width="212" height="68" viewBox="0 0 212 68" fill="none" xmlns="http://www.w3.org/2000/svg">
<path d="M211.982 24.3932C210.071 7.79029 174.315 2.94104 160.75 1.50545C124.55 -1.84239 79.2851 1.12563 41.9898 12.6706C38.3937 13.7837 34.871 14.9748 31.4404 16.2497C27.3725 17.7595 23.4314 19.3832 19.6389 21.129C11.8611 25.0616 -0.495166 32.0233 0.0153297 42.1618C1.36443 55.6218 25.7056 61.3745 36.8086 63.6882C78.3422 71.4791 124.912 67.4459 165.468 56.1765C168.789 55.1856 173.472 53.7368 178.601 51.8471C180.059 51.3103 181.555 50.7387 183.065 50.1276C197.194 44.4445 212.614 35.7115 211.981 24.3941L211.982 24.3932ZM190.888 42.5407C187.938 43.8982 184.948 45.1467 181.923 46.2984L175.311 31.6727C174.918 30.8002 175.28 29.6692 176.158 29.0149L193.106 16.3315C194.756 15.0877 194.245 12.6696 192.329 12.6696H184.94C184.456 12.6696 183.957 12.8445 183.543 13.1585L162.248 29.233H161.607L166.648 15.1572C167.105 13.8739 166.324 12.6696 165.024 12.6696H157.499C156.526 12.6696 155.578 13.3587 155.23 14.3196L142.437 49.3539C141.966 50.6419 142.756 51.8462 144.069 51.8462H151.677C152.659 51.8462 153.611 51.1608 153.964 50.2009L156.972 41.9907C157.137 41.5366 157.452 41.1267 157.854 40.8249L161.646 38.0186C162.754 37.1979 164.199 37.4639 164.667 38.577L168.992 48.786C169.359 49.6547 168.888 50.6541 167.98 50.9117C153.127 55.1498 137.703 57.598 122.426 59.4876C98.9491 62.1764 75.1711 62.9925 51.6111 61.1197C42.2445 60.33 32.8563 59.0383 23.8046 56.5328C16.7254 54.4861 4.04195 50.1868 2.98147 41.9117C2.4879 33.6056 14.2556 26.9757 20.8629 23.5931C23.8921 22.0832 26.9908 20.7257 30.1468 19.495L18.2136 49.3529C17.6984 50.6409 18.4449 51.8452 19.7583 51.8452H47.7397C48.7221 51.8452 49.6904 51.1599 50.075 50.2038L51.4805 46.6557C51.991 45.3677 51.2313 44.1549 49.918 44.1549H34.6764C33.3668 44.1549 32.6166 42.9506 33.1271 41.6673C33.1271 41.6673 40.6172 22.7075 42.9731 16.715C43.4188 15.5803 44.3608 14.7163 45.5303 14.3797C46.1677 14.1964 46.8089 14.0178 47.451 13.8382C65.7603 8.8188 84.642 5.94291 103.554 4.35784C131.771 2.3544 160.822 2.04415 188.258 9.69125C195.267 11.8865 207.981 16.3907 208.937 24.6442C209.33 32.8629 197.48 39.2963 190.889 42.5388L190.888 42.5407Z" fill="black"/>
<path d="M53.8243 49.3541L67.477 14.3198C67.8493 13.3581 68.813 12.6689 69.7842 12.6689H99.3619C100.664 12.6689 101.426 13.8808 100.935 15.1697L99.5791 18.7169C99.2124 19.6749 98.2563 20.3602 97.2851 20.3602H78.5152C77.5384 20.3602 76.572 21.055 76.2044 22.0215L74.7246 25.9118C74.2357 27.195 74.9953 28.3947 76.2956 28.3947H91.6715C92.9793 28.3947 93.7446 29.6065 93.25 30.8945L91.8803 34.4605C91.5117 35.4185 90.55 36.1048 89.575 36.1048H72.4617C71.4802 36.1048 70.509 36.7995 70.1395 37.766L68.6466 41.676C68.1568 42.9593 68.9183 44.158 70.2251 44.158H87.4108C88.7252 44.158 89.4942 45.3698 88.9969 46.6588L87.628 50.205C87.2576 51.163 86.293 51.8483 85.3134 51.8483H55.3925C54.0791 51.8483 53.3195 50.6412 53.8234 49.3551L53.8243 49.3541Z" fill="black"/>
<path d="M134.729 12.6719H121.932C121.228 12.6719 120.512 13.0376 120.036 13.6402L92.1375 48.6764C91.03 50.0565 91.7097 51.8522 93.3399 51.8522H101.137C101.864 51.8522 102.604 51.4705 103.084 50.8463L107.873 44.6225C108.352 43.9983 109.089 43.6166 109.816 43.6166H123.791C124.789 43.6166 125.527 44.3311 125.544 45.3145L125.637 50.1553C125.655 51.1386 126.395 51.8531 127.396 51.8531H135.829C137.148 51.8531 138.327 50.6366 138.258 49.3477L136.467 14.3115C136.42 13.3563 135.696 12.6738 134.73 12.6738L134.729 12.6719ZM117.807 36.4255C116.203 36.4255 115.508 34.6683 116.564 33.2873L124.758 22.5433H125.149L125.342 33.9792C125.365 35.2522 124.198 36.4255 122.909 36.4255H117.806H117.807Z" fill="black"/>
</svg>
